<svg width="40" height="40" viewBox="0 0 40 40" fill="none" xmlns="http://www.w3.org/2000/svg">
<circle opacity="0.2" cx="20" cy="20" r="19" stroke="white" stroke-width="2"/>
<path d="M19.7138 19.4665H26.9962C27.0765 19.9152 27.1167 20.3437 27.1167 20.7522C27.1167 22.2054 26.812 23.5045 26.2026 24.6496C25.5933 25.7879 24.7227 26.6786 23.591 27.3214C22.466 27.9643 21.1736 28.2857 19.7138 28.2857C18.6625 28.2857 17.6613 28.0815 16.7104 27.673C15.7596 27.2712 14.9392 26.7254 14.2495 26.0357C13.5598 25.346 13.0107 24.5257 12.6022 23.5748C12.2004 22.6239 11.9995 21.6228 11.9995 20.5714C11.9995 19.5201 12.2004 18.519 12.6022 17.5681C13.0107 16.6172 13.5598 15.7969 14.2495 15.1071C14.9392 14.4174 15.7596 13.8717 16.7104 13.4699C17.6613 13.0614 18.6625 12.8571 19.7138 12.8571C21.7227 12.8571 23.4471 13.5301 24.8868 14.8761L22.7875 16.8951C21.9638 16.0982 20.9392 15.6998 19.7138 15.6998C18.85 15.6998 18.0497 15.9174 17.3131 16.3527C16.5832 16.7879 16.004 17.3806 15.5754 18.1306C15.1468 18.8739 14.9325 19.6875 14.9325 20.5714C14.9325 21.4554 15.1468 22.2723 15.5754 23.0223C16.004 23.7656 16.5832 24.3549 17.3131 24.7902C18.0497 25.2254 18.85 25.4431 19.7138 25.4431C20.2964 25.4431 20.8321 25.3627 21.3209 25.202C21.8098 25.0413 22.2116 24.8404 22.5263 24.5993C22.841 24.3583 23.1156 24.0837 23.35 23.7757C23.5843 23.4676 23.7551 23.1763 23.8622 22.9018C23.9761 22.6272 24.0531 22.3661 24.0933 22.1183H19.7138V19.4665Z" fill="white"/>
</svg>
