<svg width="83" height="41" viewBox="0 0 83 41" fill="none" xmlns="http://www.w3.org/2000/svg">
<path d="M69.3572 15.8028C69.3572 15.8028 73.8244 15.8028 73.855 15.8028C76.263 15.8028 77.8911 14.5354 77.8911 12.4176C77.8911 11.2782 76.9486 10.0274 75.5138 9.98004V9.93267C76.5033 9.59628 77.2526 8.45684 77.2526 7.58983C77.2526 5.31331 75.5138 4.57422 73.1058 4.57422C73.0752 4.57422 69.3572 4.57422 69.3572 4.57422C69.1334 4.57422 68.959 4.74952 68.959 4.97456V15.4024C68.9567 15.6275 69.1334 15.8028 69.3572 15.8028ZM72.2435 7.28661C72.5639 7.28661 72.8019 7.28661 72.8985 7.28661C73.6807 7.28661 74.159 7.60878 74.159 8.10388C74.159 8.56818 73.8715 9.04907 72.9456 9.04907C72.7217 9.04907 72.4838 9.04907 72.2435 9.04907V7.28661ZM72.2435 11.3611C72.8985 11.3611 73.4875 11.3611 73.6312 11.3611C74.3004 11.3611 74.7009 11.7449 74.7009 12.2423C74.7009 12.7232 74.3027 13.1402 73.6171 13.1402C73.3932 13.1402 72.8513 13.1402 72.2458 13.1402V11.3611H72.2435Z" fill="#E8E8E8"/>
<path d="M77.8582 20.6165H68.9897C68.7659 20.6165 68.5916 20.8083 68.5916 21.0168V22.9735C68.5916 23.1986 68.7659 23.3739 68.9897 23.3739H71.7817V31.4423C71.7817 31.6674 71.9561 31.8427 72.1799 31.8427H74.668C74.8918 31.8427 75.0662 31.6674 75.0662 31.4423V23.3739H77.8582C78.082 23.3739 78.2564 23.1986 78.2564 22.9735V21.0168C78.2587 20.8083 78.082 20.6165 77.8582 20.6165Z" fill="#E8E8E8"/>
<path d="M82.8791 7.00715C82.8791 3.4846 80.0894 0.620605 76.6613 0.620605H27.1826C27.1308 0.620605 27.079 0.622974 27.0271 0.625343H25.8773H19.5629L19.4522 1.0778L18.8867 3.40169L17.294 9.95169L15.0792 0.625343H8.14984H6.92701H0L10.2656 35.9646H16.5706H17.7935H23.1607H23.4128C25.4909 38.6367 28.6788 40.302 32.1376 40.302H44.2928C45.412 40.302 46.5406 39.9254 47.5608 39.21C48.5833 38.4922 50.2138 38.0658 51.9243 38.0658C53.6325 38.0658 55.2629 38.4945 56.2878 39.21C57.308 39.9254 58.4366 40.302 59.5558 40.302H71.711C76.7013 40.302 81.1261 36.8387 82.4715 31.8806L82.4644 31.8782C82.733 31.1652 82.8814 30.3905 82.8814 29.5804V7.00715H82.8791ZM45.6806 34.7801L41.7718 24.8047H35.6717V34.7801H30.8299L30.4812 9.47081L23.8463 33.4772L23.8393 33.5009L23.6626 34.1405L23.5 34.7256L23.4835 34.7825H23.2974H22.6023H17.466L12.9705 18.295L8.47263 1.80979H14.1509L16.6696 12.4035C16.6743 12.4248 16.6814 12.4438 16.6884 12.4651L16.6837 12.484L20.6632 26.8206L20.9672 25.5793L22.1452 20.7799L26.7986 1.82164C26.8763 1.81453 26.9517 1.81216 27.0295 1.80979H48.2864C50.4611 1.80979 50.9441 3.70965 51.0054 4.00102C51.0243 4.92016 51.3046 17.9988 51.3046 21.4693C51.3046 22.3126 51.0596 22.9712 50.579 23.4212C49.6318 24.3072 48.0461 24.203 48.032 24.203L47.1131 24.1319L51.0478 34.7801H45.6806ZM81.701 29.5828C81.701 32.4515 79.4415 34.7849 76.6613 34.7849H52.306L48.8236 25.3566C49.5493 25.2785 50.586 25.0297 51.3753 24.293C52.1104 23.6084 52.4851 22.6585 52.4851 21.4669C52.4851 17.8757 52.1882 4.06261 52.1835 3.92285L52.1764 3.83757C52.0845 3.27851 51.7711 2.47071 51.1491 1.80269H76.666C79.4439 1.80269 81.7057 4.13605 81.7057 7.00479V29.5828H81.701Z" fill="#E8E8E8"/>
<path d="M43.4754 7.2749H38.9657H35.6719V19.0388H39.7268H44.1257L44.1728 19.0317C44.7783 18.9299 45.7938 18.4798 46.2438 17.4612C46.2744 17.3925 46.3004 17.3238 46.3263 17.2503C46.4182 16.9803 46.47 16.6771 46.47 16.3336V9.98492C46.47 9.04684 45.8433 7.2749 43.4754 7.2749ZM39.2791 16.3312C39.2791 17.1864 39.1142 17.608 39.0152 17.7833C39.0011 17.807 38.9917 17.8307 38.9799 17.8544H36.8499V8.45935H38.9469C39.1142 8.59438 39.2767 9.33584 39.2791 9.98255V16.3312Z" fill="#E8E8E8"/>
<path d="M61.4353 4.38232C58.1815 4.38232 55.4531 6.981 55.4531 10.1885C55.4531 13.396 58.1815 15.9947 61.4353 15.9947C64.6726 15.9947 67.4175 13.396 67.4175 10.1885C67.4175 6.981 64.6726 4.38232 61.4353 4.38232ZM61.4353 13.1567C59.8732 13.1567 58.5962 11.8254 58.5962 10.1885C58.5962 8.55158 59.8732 7.23685 61.4353 7.23685C62.9998 7.23685 64.258 8.55158 64.258 10.1885C64.258 11.8254 62.9998 13.1567 61.4353 13.1567Z" fill="#E8E8E8"/>
<path d="M61.4353 20.4221C58.1815 20.4221 55.4531 23.0208 55.4531 26.2283C55.4531 29.4358 58.1815 32.0345 61.4353 32.0345C64.6726 32.0345 67.4175 29.4358 67.4175 26.2283C67.4175 23.0208 64.6726 20.4221 61.4353 20.4221ZM61.4353 29.1965C59.8732 29.1965 58.5962 27.8652 58.5962 26.2283C58.5962 24.5914 59.8732 23.2766 61.4353 23.2766C62.9998 23.2766 64.258 24.5914 64.258 26.2283C64.258 27.8652 62.9998 29.1965 61.4353 29.1965Z" fill="#E8E8E8"/>
</svg>
