<svg width="40" height="40" viewBox="0 0 40 40" fill="none" xmlns="http://www.w3.org/2000/svg">
<circle opacity="0.2" cx="20" cy="20" r="19" stroke="white" stroke-width="2"/>
<path d="M28.6285 15.6696C28.1798 16.3259 27.6374 16.885 27.0012 17.3471C27.0079 17.4408 27.0113 17.5815 27.0113 17.769C27.0113 18.6395 26.884 19.51 26.6296 20.3806C26.3751 21.2444 25.9867 22.0748 25.4644 22.8717C24.9488 23.6685 24.3327 24.375 23.6162 24.9911C22.8997 25.6004 22.0358 26.0893 21.0247 26.4576C20.0135 26.8192 18.932 27 17.7802 27C15.9655 27 14.3048 26.5145 12.7981 25.5435C13.0325 25.5703 13.2936 25.5837 13.5816 25.5837C15.0883 25.5837 16.4309 25.1217 17.6095 24.1975C16.9064 24.1842 16.2769 23.9699 15.7211 23.5547C15.1653 23.1328 14.7836 22.5971 14.576 21.9475C14.797 21.981 15.0012 21.9978 15.1887 21.9978C15.4767 21.9978 15.7613 21.9609 16.0425 21.8873C15.2925 21.7333 14.6698 21.3616 14.1742 20.7723C13.6854 20.1763 13.441 19.4866 13.441 18.7031V18.6629C13.8963 18.9174 14.3852 19.0547 14.9075 19.0748C14.4655 18.7801 14.114 18.3951 13.8528 17.9196C13.5916 17.4442 13.4611 16.9286 13.4611 16.3728C13.4611 15.7835 13.6084 15.2377 13.903 14.7355C14.7133 15.7333 15.6977 16.5335 16.8561 17.1362C18.0213 17.7321 19.2669 18.0636 20.5927 18.1306C20.5392 17.8761 20.5124 17.6283 20.5124 17.3873C20.5124 16.49 20.8271 15.7266 21.4566 15.0971C22.0927 14.4609 22.8595 14.1429 23.7568 14.1429C24.6943 14.1429 25.4845 14.4844 26.1273 15.1674C26.8573 15.0268 27.5436 14.7656 28.1865 14.3839C27.9387 15.154 27.4633 15.75 26.7602 16.1719C27.3829 16.1049 28.0057 15.9375 28.6285 15.6696Z" fill="white"/>
</svg>
